<svg xmlns="http://www.w3.org/2000/svg" viewBox="0 0 1060 1050" font-family="'DM Mono', 'Courier New', monospace" font-size="11">
  <defs>
    <marker id="a" markerWidth="8" markerHeight="8" refX="6" refY="3" orient="auto"><path d="M0,0 L0,6 L8,3z" fill="#00E5A0"/></marker>
    <marker id="ad" markerWidth="8" markerHeight="8" refX="6" refY="3" orient="auto"><path d="M0,0 L0,6 L8,3z" fill="#555"/></marker>
    <marker id="ab" markerWidth="8" markerHeight="8" refX="6" refY="3" orient="auto"><path d="M0,0 L0,6 L8,3z" fill="#4C9AFF"/></marker>
    <marker id="ap" markerWidth="8" markerHeight="8" refX="6" refY="3" orient="auto"><path d="M0,0 L0,6 L8,3z" fill="#B388FF"/></marker>
    <marker id="ay" markerWidth="8" markerHeight="8" refX="6" refY="3" orient="auto"><path d="M0,0 L0,6 L8,3z" fill="#FFD700"/></marker>
    <marker id="ar" markerWidth="8" markerHeight="8" refX="6" refY="3" orient="auto"><path d="M0,0 L0,6 L8,3z" fill="#ff6b6b"/></marker>
    <marker id="ao" markerWidth="8" markerHeight="8" refX="6" refY="3" orient="auto"><path d="M0,0 L0,6 L8,3z" fill="#FF8C42"/></marker>

    <!-- Glow filter -->
    <filter id="glow" x="-20%" y="-20%" width="140%" height="140%">
      <feGaussianBlur stdDeviation="2" result="blur"/>
      <feMerge><feMergeNode in="blur"/><feMergeNode in="SourceGraphic"/></feMerge>
    </filter>
  </defs>

  <!-- Background -->
  <rect width="1060" height="1050" fill="#080C0F" rx="12"/>

  <!-- Subtle grid pattern -->
  <g opacity="0.03">
    <line x1="0" y1="0" x2="0" y2="1050" stroke="#fff" stroke-width="0.5" transform="translate(100,0)"/>
    <line x1="0" y1="0" x2="0" y2="1050" stroke="#fff" stroke-width="0.5" transform="translate(200,0)"/>
    <line x1="0" y1="0" x2="0" y2="1050" stroke="#fff" stroke-width="0.5" transform="translate(300,0)"/>
    <line x1="0" y1="0" x2="0" y2="1050" stroke="#fff" stroke-width="0.5" transform="translate(400,0)"/>
    <line x1="0" y1="0" x2="0" y2="1050" stroke="#fff" stroke-width="0.5" transform="translate(500,0)"/>
    <line x1="0" y1="0" x2="0" y2="1050" stroke="#fff" stroke-width="0.5" transform="translate(600,0)"/>
    <line x1="0" y1="0" x2="0" y2="1050" stroke="#fff" stroke-width="0.5" transform="translate(700,0)"/>
    <line x1="0" y1="0" x2="0" y2="1050" stroke="#fff" stroke-width="0.5" transform="translate(800,0)"/>
    <line x1="0" y1="0" x2="0" y2="1050" stroke="#fff" stroke-width="0.5" transform="translate(900,0)"/>
    <line x1="0" y1="0" x2="1060" y2="0" stroke="#fff" stroke-width="0.5" transform="translate(0,100)"/>
    <line x1="0" y1="0" x2="1060" y2="0" stroke="#fff" stroke-width="0.5" transform="translate(0,200)"/>
    <line x1="0" y1="0" x2="1060" y2="0" stroke="#fff" stroke-width="0.5" transform="translate(0,300)"/>
    <line x1="0" y1="0" x2="1060" y2="0" stroke="#fff" stroke-width="0.5" transform="translate(0,400)"/>
    <line x1="0" y1="0" x2="1060" y2="0" stroke="#fff" stroke-width="0.5" transform="translate(0,500)"/>
    <line x1="0" y1="0" x2="1060" y2="0" stroke="#fff" stroke-width="0.5" transform="translate(0,600)"/>
    <line x1="0" y1="0" x2="1060" y2="0" stroke="#fff" stroke-width="0.5" transform="translate(0,700)"/>
    <line x1="0" y1="0" x2="1060" y2="0" stroke="#fff" stroke-width="0.5" transform="translate(0,800)"/>
    <line x1="0" y1="0" x2="1060" y2="0" stroke="#fff" stroke-width="0.5" transform="translate(0,900)"/>
  </g>

  <!-- ═══════════════════════════════════════ HEADER ═══════════════════════════════════════ -->
  <text x="30" y="28" fill="#555" font-size="8" letter-spacing="3">— ARC — AUTONOMOUS REMEDIATION CODE-FIX AGENT — SYSTEM ARCHITECTURE —</text>
  <text x="30" y="52" fill="#fff" font-size="20" font-weight="700" font-family="'Syne', sans-serif">ARC (Autonomous Remediation Code-fix) Agent</text>
  <text x="30" y="70" fill="#00E5A0" font-size="11" font-weight="600">LangChain · LangGraph · Tree-sitter AST · pgvector RAG · CI Sidecar</text>

  <!-- Pipeline level indicators (right side) -->
  <rect x="920" y="85" width="120" height="20" rx="3" fill="#0a1a12" stroke="#00E5A0" stroke-width="0.8"/>
  <text x="980" y="99" fill="#00E5A0" font-size="8" text-anchor="middle" font-weight="700">L1 — DEPLOYED</text>
  <rect x="920" y="108" width="120" height="20" rx="3" fill="#0a1a12" stroke="#00E5A0" stroke-width="0.8"/>
  <text x="980" y="122" fill="#00E5A0" font-size="8" text-anchor="middle" font-weight="700">L2 — DEPLOYED</text>
  <rect x="920" y="131" width="120" height="20" rx="3" fill="#1a1208" stroke="#FFD700" stroke-width="0.8" stroke-dasharray="3,2"/>
  <text x="980" y="145" fill="#FFD700" font-size="8" text-anchor="middle" font-weight="700">L3 — IN PROGRESS</text>

  <!-- ═══════════════════════════════════════ STAGE 0: JIRA WEBHOOK ═══════════════════════════════════════ -->
  <rect x="355" y="88" width="210" height="48" rx="6" fill="#0d1020" stroke="#4C9AFF" stroke-width="2"/>
  <text x="460" y="105" fill="#4C9AFF" font-size="7" text-anchor="middle" letter-spacing="2">TRIGGER</text>
  <text x="460" y="122" fill="#fff" font-size="13" text-anchor="middle" font-weight="700">Jira Webhook Event</text>
  <text x="460" y="132" fill="#555" font-size="7" text-anchor="middle">issue_created · issue_updated · comment_added</text>

  <!-- Arrow: Webhook → Ingestion -->
  <line x1="460" y1="136" x2="460" y2="162" stroke="#4C9AFF" stroke-width="1.5" marker-end="url(#ab)"/>
  <text x="472" y="152" fill="#4C9AFF" font-size="7">POST /webhook</text>

  <!-- ═══════════════════════════════════════ STAGE 1: TICKET INGESTION & CLASSIFICATION ═══════════════════════════════════════ -->
  <rect x="100" y="164" width="720" height="110" rx="8" fill="#0d1117" stroke="#B388FF" stroke-width="2"/>
  <text x="420" y="180" fill="#B388FF" font-size="8" text-anchor="middle" letter-spacing="3">STAGE 1 — TICKET INGESTION &amp; CLASSIFICATION</text>
  <rect x="740" y="168" width="55" height="16" rx="3" fill="#0a1a12" stroke="#00E5A0" stroke-width="1"/>
  <text x="767" y="180" fill="#00E5A0" font-size="7" text-anchor="middle" font-weight="700">L1 ✓</text>

  <!-- Sub-components inside Stage 1 -->
  <rect x="120" y="190" width="160" height="72" rx="4" fill="#111820" stroke="#444" stroke-width="1"/>
  <text x="200" y="206" fill="#B388FF" font-size="7" text-anchor="middle" letter-spacing="1.5">WEBHOOK PARSER</text>
  <text x="200" y="222" fill="#aaa" font-size="8" text-anchor="middle">extract ticket ID</text>
  <text x="200" y="234" fill="#aaa" font-size="8" text-anchor="middle">parse error traces</text>
  <text x="200" y="246" fill="#aaa" font-size="8" text-anchor="middle">identify affected files</text>
  <text x="200" y="258" fill="#555" font-size="7" text-anchor="middle">dedup · idempotent</text>

  <rect x="300" y="190" width="180" height="72" rx="4" fill="#111820" stroke="#444" stroke-width="1"/>
  <text x="390" y="206" fill="#B388FF" font-size="7" text-anchor="middle" letter-spacing="1.5">LLM CLASSIFIER</text>
  <text x="390" y="222" fill="#aaa" font-size="8" text-anchor="middle">LangChain prompt chain</text>
  <text x="390" y="236" fill="#00E5A0" font-size="8" text-anchor="middle">AUTOMATABLE</text>
  <text x="390" y="248" fill="#FFD700" font-size="8" text-anchor="middle">NEEDS_CONTEXT · COMPLEX</text>
  <text x="390" y="260" fill="#555" font-size="8" text-anchor="middle">NON_CODE · DUPLICATE</text>

  <rect x="500" y="190" width="155" height="72" rx="4" fill="#111820" stroke="#444" stroke-width="1"/>
  <text x="577" y="206" fill="#B388FF" font-size="7" text-anchor="middle" letter-spacing="1.5">STATE MANAGER</text>
  <text x="577" y="222" fill="#aaa" font-size="8" text-anchor="middle">ticket lifecycle FSM</text>
  <text x="577" y="234" fill="#aaa" font-size="8" text-anchor="middle">INGESTED → CLASSIFIED</text>
  <text x="577" y="246" fill="#aaa" font-size="8" text-anchor="middle">→ ANALYZING → FIXING</text>
  <text x="577" y="258" fill="#aaa" font-size="8" text-anchor="middle">→ PR_OPEN → MERGED</text>

  <rect x="675" y="190" width="130" height="72" rx="4" fill="#111820" stroke="#444" stroke-width="1"/>
  <text x="740" y="206" fill="#B388FF" font-size="7" text-anchor="middle" letter-spacing="1.5">METRICS</text>
  <text x="740" y="224" fill="#aaa" font-size="8" text-anchor="middle">classification latency</text>
  <text x="740" y="238" fill="#aaa" font-size="8" text-anchor="middle">confidence scores</text>
  <text x="740" y="252" fill="#aaa" font-size="8" text-anchor="middle">ticket throughput</text>

  <!-- Internal arrows in Stage 1 -->
  <line x1="280" y1="226" x2="298" y2="226" stroke="#555" stroke-width="1" marker-end="url(#ad)"/>
  <line x1="480" y1="226" x2="498" y2="226" stroke="#555" stroke-width="1" marker-end="url(#ad)"/>
  <line x1="655" y1="226" x2="673" y2="226" stroke="#555" stroke-width="1" marker-end="url(#ad)"/>

  <!-- Arrow: Stage 1 → Stage 2 (AUTOMATABLE path) -->
  <line x1="300" y1="274" x2="300" y2="302" stroke="#00E5A0" stroke-width="1.5" marker-end="url(#a)"/>
  <text x="310" y="292" fill="#00E5A0" font-size="7" font-weight="700">AUTOMATABLE</text>

  <!-- Arrow: Stage 1 → Stage 2 (right branch for context) -->
  <line x1="600" y1="274" x2="600" y2="302" stroke="#FF8C42" stroke-width="1.2" stroke-dasharray="4,3" marker-end="url(#ao)"/>
  <text x="612" y="292" fill="#FF8C42" font-size="7">+error context</text>

  <!-- ═══════════════════════════════════════ STAGE 2: KNOWLEDGE BASE RAG ═══════════════════════════════════════ -->
  <rect x="100" y="304" width="470" height="100" rx="8" fill="#0d1117" stroke="#00E5A0" stroke-width="2"/>
  <text x="300" y="320" fill="#00E5A0" font-size="8" text-anchor="middle" letter-spacing="3">STAGE 2 — ROOT CAUSE ANALYSIS + HISTORICAL RAG</text>
  <rect x="498" y="308" width="55" height="16" rx="3" fill="#0a1a12" stroke="#00E5A0" stroke-width="1"/>
  <text x="525" y="320" fill="#00E5A0" font-size="7" text-anchor="middle" font-weight="700">L2 ✓</text>

  <!-- Sub-components inside Stage 2 -->
  <rect x="115" y="332" width="145" height="60" rx="4" fill="#111820" stroke="#444" stroke-width="1"/>
  <text x="187" y="346" fill="#00E5A0" font-size="7" text-anchor="middle" letter-spacing="1">ERROR PARSER</text>
  <text x="187" y="360" fill="#aaa" font-size="8" text-anchor="middle">stack trace extraction</text>
  <text x="187" y="372" fill="#aaa" font-size="8" text-anchor="middle">exception classification</text>
  <text x="187" y="384" fill="#aaa" font-size="8" text-anchor="middle">root cause hypothesis</text>

  <rect x="275" y="332" width="145" height="60" rx="4" fill="#111820" stroke="#444" stroke-width="1"/>
  <text x="347" y="346" fill="#00E5A0" font-size="7" text-anchor="middle" letter-spacing="1">EMBEDDING ENGINE</text>
  <text x="347" y="360" fill="#aaa" font-size="8" text-anchor="middle">sentence-transformers</text>
  <text x="347" y="372" fill="#aaa" font-size="8" text-anchor="middle">ticket → 768-dim vector</text>
  <text x="347" y="384" fill="#aaa" font-size="8" text-anchor="middle">cosine similarity search</text>

  <rect x="435" y="332" width="120" height="60" rx="4" fill="#111820" stroke="#444" stroke-width="1"/>
  <text x="495" y="346" fill="#00E5A0" font-size="7" text-anchor="middle" letter-spacing="1">MATCH RANKER</text>
  <text x="495" y="360" fill="#aaa" font-size="8" text-anchor="middle">top-K retrieval</text>
  <text x="495" y="372" fill="#aaa" font-size="8" text-anchor="middle">confidence filter</text>
  <text x="495" y="384" fill="#aaa" font-size="8" text-anchor="middle">context assembly</text>

  <line x1="260" y1="362" x2="273" y2="362" stroke="#555" stroke-width="1" marker-end="url(#ad)"/>
  <line x1="420" y1="362" x2="433" y2="362" stroke="#555" stroke-width="1" marker-end="url(#ad)"/>

  <!-- pgvector KB (external) -->
  <rect x="620" y="310" width="220" height="88" rx="6" fill="#0a1a12" stroke="#00E5A0" stroke-width="1.5"/>
  <text x="730" y="328" fill="#00E5A0" font-size="7" text-anchor="middle" letter-spacing="2" font-weight="700">KNOWLEDGE BASE</text>
  <text x="730" y="346" fill="#fff" font-size="11" text-anchor="middle" font-weight="600">PostgreSQL + pgvector</text>
  <text x="730" y="362" fill="#aaa" font-size="8" text-anchor="middle">embedded historical fixes</text>
  <text x="730" y="376" fill="#aaa" font-size="8" text-anchor="middle">resolution patterns · diffs</text>
  <text x="730" y="390" fill="#555" font-size="7" text-anchor="middle">auto-indexed on PR merge</text>

  <!-- Arrow: Stage 2 → KB -->
  <line x1="570" y1="354" x2="618" y2="354" stroke="#00E5A0" stroke-width="1.5" marker-end="url(#a)"/>
  <text x="594" y="346" fill="#00E5A0" font-size="7">RAG</text>
  <!-- Arrow: KB → Stage 2 (return) -->
  <line x1="618" y1="370" x2="570" y2="370" stroke="#555" stroke-width="1" stroke-dasharray="3,2" marker-end="url(#ad)"/>
  <text x="594" y="382" fill="#555" font-size="6">matches</text>

  <!-- Arrow: Stage 2 → Stage 3 -->
  <line x1="335" y1="404" x2="335" y2="430" stroke="#00E5A0" stroke-width="1.5" marker-end="url(#a)"/>

  <!-- ═══════════════════════════════════════ STAGE 3: REPO ANALYSIS (Tree-sitter) ═══════════════════════════════════════ -->
  <rect x="40" y="432" width="760" height="130" rx="8" fill="#0d1117" stroke="#FFD700" stroke-width="2"/>
  <text x="380" y="448" fill="#FFD700" font-size="8" text-anchor="middle" letter-spacing="3">STAGE 3 — REPOSITORY ANALYSIS · TREE-SITTER AST · DEPENDENCY GRAPH</text>
  <rect x="720" y="436" width="55" height="16" rx="3" fill="#0a1a12" stroke="#00E5A0" stroke-width="1"/>
  <text x="747" y="448" fill="#00E5A0" font-size="7" text-anchor="middle" font-weight="700">L1 ✓</text>

  <!-- Sub-components -->
  <rect x="55" y="458" width="130" height="92" rx="4" fill="#111820" stroke="#444" stroke-width="1"/>
  <text x="120" y="472" fill="#FFD700" font-size="7" text-anchor="middle" letter-spacing="1">GIT CLONE</text>
  <text x="120" y="488" fill="#aaa" font-size="8" text-anchor="middle">shallow clone</text>
  <text x="120" y="500" fill="#aaa" font-size="8" text-anchor="middle">--depth 1</text>
  <text x="120" y="514" fill="#aaa" font-size="8" text-anchor="middle">target branch</text>
  <text x="120" y="530" fill="#555" font-size="7" text-anchor="middle">multi-repo support</text>
  <text x="120" y="542" fill="#555" font-size="7" text-anchor="middle">via Jira labels</text>

  <rect x="200" y="458" width="170" height="92" rx="4" fill="#111820" stroke="#FFD700" stroke-width="1"/>
  <text x="285" y="472" fill="#FFD700" font-size="7" text-anchor="middle" letter-spacing="1">TREE-SITTER AST PARSER</text>
  <text x="285" y="488" fill="#aaa" font-size="8" text-anchor="middle">Python · Java · Groovy · YAML</text>
  <text x="285" y="502" fill="#fff" font-size="8" text-anchor="middle" font-weight="600">symbol extraction:</text>
  <text x="285" y="514" fill="#aaa" font-size="8" text-anchor="middle">classes · functions · methods</text>
  <text x="285" y="526" fill="#aaa" font-size="8" text-anchor="middle">import statements</text>
  <text x="285" y="540" fill="#aaa" font-size="8" text-anchor="middle">qualified method calls</text>

  <rect x="385" y="458" width="175" height="92" rx="4" fill="#111820" stroke="#FFD700" stroke-width="1"/>
  <text x="472" y="472" fill="#FFD700" font-size="7" text-anchor="middle" letter-spacing="1">DEPENDENCY GRAPH</text>
  <text x="472" y="488" fill="#fff" font-size="8" text-anchor="middle" font-weight="600">DAG construction:</text>
  <text x="472" y="502" fill="#aaa" font-size="8" text-anchor="middle">import → file edges</text>
  <text x="472" y="514" fill="#aaa" font-size="8" text-anchor="middle">call-site → def edges</text>
  <text x="472" y="526" fill="#00E5A0" font-size="8" text-anchor="middle">qualified matching</text>
  <text x="472" y="540" fill="#aaa" font-size="8" text-anchor="middle">structural neighbors</text>

  <rect x="575" y="458" width="210" height="92" rx="4" fill="#111820" stroke="#444" stroke-width="1"/>
  <text x="680" y="472" fill="#FFD700" font-size="7" text-anchor="middle" letter-spacing="1">GRAPH METRICS</text>
  <text x="680" y="490" fill="#00E5A0" font-size="9" text-anchor="middle" font-weight="700">700+ files parsed</text>
  <text x="680" y="504" fill="#00E5A0" font-size="9" text-anchor="middle" font-weight="700">600+ dependency edges</text>
  <text x="680" y="518" fill="#aaa" font-size="8" text-anchor="middle">under 30 seconds</text>
  <text x="680" y="534" fill="#aaa" font-size="8" text-anchor="middle">language-agnostic plugin model</text>
  <text x="680" y="546" fill="#555" font-size="7" text-anchor="middle">AST · graph · context coverage</text>

  <!-- Internal arrows in Stage 3 -->
  <line x1="185" y1="505" x2="198" y2="505" stroke="#555" stroke-width="1" marker-end="url(#ad)"/>
  <line x1="370" y1="505" x2="383" y2="505" stroke="#555" stroke-width="1" marker-end="url(#ad)"/>
  <line x1="560" y1="505" x2="573" y2="505" stroke="#555" stroke-width="1" marker-end="url(#ad)"/>

  <!-- Arrow: Stage 3 → Stage 4 -->
  <line x1="420" y1="562" x2="420" y2="588" stroke="#00E5A0" stroke-width="1.5" marker-end="url(#a)"/>
  <text x="432" y="578" fill="#555" font-size="7">dep graph</text>

  <!-- ═══════════════════════════════════════ STAGE 4: TIERED CONTEXT ASSEMBLY ═══════════════════════════════════════ -->
  <rect x="100" y="590" width="640" height="110" rx="8" fill="#0d1117" stroke="#B388FF" stroke-width="2"/>
  <text x="380" y="606" fill="#B388FF" font-size="8" text-anchor="middle" letter-spacing="3">STAGE 4 — TIERED CONTEXT ASSEMBLY · ~60% TOKEN REDUCTION</text>
  <rect x="668" y="594" width="55" height="16" rx="3" fill="#0a1a12" stroke="#00E5A0" stroke-width="1"/>
  <text x="695" y="606" fill="#00E5A0" font-size="7" text-anchor="middle" font-weight="700">L2 ✓</text>

  <!-- Tier boxes -->
  <rect x="115" y="616" width="140" height="72" rx="4" fill="#0a1a12" stroke="#00E5A0" stroke-width="1.5"/>
  <text x="185" y="630" fill="#00E5A0" font-size="8" text-anchor="middle" font-weight="700">TIER 1 — TARGET</text>
  <text x="185" y="646" fill="#fff" font-size="9" text-anchor="middle">full source code</text>
  <text x="185" y="660" fill="#aaa" font-size="8" text-anchor="middle">affected files from</text>
  <text x="185" y="672" fill="#aaa" font-size="8" text-anchor="middle">error trace + ticket</text>
  <text x="185" y="684" fill="#00E5A0" font-size="7" text-anchor="middle">██████████ 100%</text>

  <rect x="268" y="616" width="140" height="72" rx="4" fill="#0d1117" stroke="#4C9AFF" stroke-width="1.5"/>
  <text x="338" y="630" fill="#4C9AFF" font-size="8" text-anchor="middle" font-weight="700">TIER 2 — DEPS</text>
  <text x="338" y="646" fill="#fff" font-size="9" text-anchor="middle">full source code</text>
  <text x="338" y="660" fill="#aaa" font-size="8" text-anchor="middle">direct imports</text>
  <text x="338" y="672" fill="#aaa" font-size="8" text-anchor="middle">of target files</text>
  <text x="338" y="684" fill="#4C9AFF" font-size="7" text-anchor="middle">████████░░ 80%</text>

  <rect x="421" y="616" width="150" height="72" rx="4" fill="#0d1117" stroke="#B388FF" stroke-width="1"/>
  <text x="496" y="630" fill="#B388FF" font-size="8" text-anchor="middle" font-weight="700">TIER 3 — DEPENDENTS</text>
  <text x="496" y="646" fill="#fff" font-size="9" text-anchor="middle">signatures only</text>
  <text x="496" y="660" fill="#aaa" font-size="8" text-anchor="middle">files that import</text>
  <text x="496" y="672" fill="#aaa" font-size="8" text-anchor="middle">target (callers)</text>
  <text x="496" y="684" fill="#B388FF" font-size="7" text-anchor="middle">████░░░░░░ 40%</text>

  <rect x="584" y="616" width="140" height="72" rx="4" fill="#111820" stroke="#555" stroke-width="1"/>
  <text x="654" y="630" fill="#888" font-size="8" text-anchor="middle" font-weight="700">TIER 4 — TRANSITIVE</text>
  <text x="654" y="646" fill="#fff" font-size="9" text-anchor="middle">file names only</text>
  <text x="654" y="660" fill="#aaa" font-size="8" text-anchor="middle">2nd-degree connections</text>
  <text x="654" y="672" fill="#aaa" font-size="8" text-anchor="middle">awareness without cost</text>
  <text x="654" y="684" fill="#555" font-size="7" text-anchor="middle">█░░░░░░░░░ 10%</text>

  <!-- Tier connection arrows -->
  <line x1="255" y1="652" x2="266" y2="652" stroke="#555" stroke-width="0.8" marker-end="url(#ad)"/>
  <line x1="408" y1="652" x2="419" y2="652" stroke="#555" stroke-width="0.8" marker-end="url(#ad)"/>
  <line x1="571" y1="652" x2="582" y2="652" stroke="#555" stroke-width="0.8" marker-end="url(#ad)"/>

  <!-- Token savings callout -->
  <rect x="770" y="618" width="115" height="66" rx="6" fill="#0a1a12" stroke="#00E5A0" stroke-width="1" filter="url(#glow)"/>
  <text x="827" y="638" fill="#00E5A0" font-size="9" text-anchor="middle" font-weight="700">TOKEN SAVINGS</text>
  <text x="827" y="656" fill="#fff" font-size="16" text-anchor="middle" font-weight="700">~60%</text>
  <text x="827" y="672" fill="#aaa" font-size="7" text-anchor="middle">vs full repo dump</text>

  <!-- Arrow: Stage 4 → Stage 5 -->
  <line x1="420" y1="700" x2="420" y2="728" stroke="#00E5A0" stroke-width="1.5" marker-end="url(#a)"/>
  <text x="432" y="718" fill="#555" font-size="7">tiered context + KB</text>

  <!-- ═══════════════════════════════════════ STAGE 5: LLM CODE GENERATION ═══════════════════════════════════════ -->
  <rect x="200" y="730" width="440" height="72" rx="8" fill="#0d1117" stroke="#00E5A0" stroke-width="2"/>
  <text x="380" y="746" fill="#00E5A0" font-size="8" text-anchor="middle" letter-spacing="3">STAGE 5 — LLM CODE GENERATION</text>
  <rect x="560" y="734" width="55" height="16" rx="3" fill="#0a1a12" stroke="#00E5A0" stroke-width="1"/>
  <text x="587" y="746" fill="#00E5A0" font-size="7" text-anchor="middle" font-weight="700">L1 ✓</text>

  <text x="420" y="766" fill="#fff" font-size="12" text-anchor="middle" font-weight="700">LangChain + LangGraph Orchestration</text>
  <text x="420" y="782" fill="#aaa" font-size="9" text-anchor="middle">tiered context + KB matches + ticket details → structurally-aware targeted fix</text>
  <text x="420" y="796" fill="#555" font-size="8" text-anchor="middle">multi-file diff generation · codebase style matching · import-aware patching</text>

  <!-- Arrow: LLM → PR Creation -->
  <line x1="420" y1="802" x2="420" y2="830" stroke="#00E5A0" stroke-width="1.5" marker-end="url(#a)"/>
  <text x="432" y="820" fill="#555" font-size="7">generated diff</text>

  <!-- ═══════════════════════════════════════ STAGE 6: PR + CI SIDECAR ═══════════════════════════════════════ -->
  <rect x="60" y="832" width="820" height="120" rx="8" fill="#0d1117" stroke="#FFD700" stroke-width="2" stroke-dasharray="8,4"/>
  <text x="420" y="848" fill="#FFD700" font-size="8" text-anchor="middle" letter-spacing="3">STAGE 6 — PR CREATION + CI SIDECAR + AUTO-MERGE</text>
  <rect x="790" y="836" width="75" height="16" rx="3" fill="#1a1208" stroke="#FFD700" stroke-width="1" stroke-dasharray="3,2"/>
  <text x="827" y="848" fill="#FFD700" font-size="7" text-anchor="middle" font-weight="700">L3 · WIP</text>

  <!-- PR Creator sub-box -->
  <rect x="80" y="858" width="200" height="80" rx="4" fill="#111820" stroke="#00E5A0" stroke-width="1.5"/>
  <text x="180" y="874" fill="#00E5A0" font-size="7" text-anchor="middle" letter-spacing="1.5">PR CREATOR</text>
  <text x="180" y="892" fill="#fff" font-size="10" text-anchor="middle" font-weight="600">GitHub API</text>
  <text x="180" y="906" fill="#aaa" font-size="8" text-anchor="middle">create branch</text>
  <text x="180" y="918" fill="#aaa" font-size="8" text-anchor="middle">commit multi-file diff</text>
  <text x="180" y="930" fill="#aaa" font-size="8" text-anchor="middle">open pull request</text>

  <!-- Arrow: PR → CI -->
  <line x1="280" y1="898" x2="330" y2="898" stroke="#FFD700" stroke-width="1.5" marker-end="url(#ay)"/>
  <text x="305" y="890" fill="#FFD700" font-size="7">trigger CI</text>

  <!-- CI Sidecar sub-box -->
  <rect x="335" y="858" width="230" height="80" rx="4" fill="#111820" stroke="#FFD700" stroke-width="1.5" stroke-dasharray="5,3"/>
  <text x="450" y="874" fill="#FFD700" font-size="7" text-anchor="middle" letter-spacing="1.5">CI SIDECAR · TEST RUNNER</text>
  <text x="450" y="892" fill="#fff" font-size="10" text-anchor="middle" font-weight="600">Iterative Validation</text>
  <text x="450" y="906" fill="#aaa" font-size="8" text-anchor="middle">run full test suite</text>
  <text x="450" y="918" fill="#aaa" font-size="8" text-anchor="middle">parse failure logs</text>
  <text x="450" y="930" fill="#aaa" font-size="8" text-anchor="middle">feed errors → LLM re-gen</text>

  <!-- Self-healing loop -->
  <path d="M565,888 C600,888 610,858 610,848 C610,826 430,816 430,802" stroke="#ff6b6b" stroke-width="1.5" stroke-dasharray="5,3" fill="none" marker-end="url(#ar)"/>
  <text x="620" y="856" fill="#ff6b6b" font-size="7" font-weight="700">SELF-HEAL</text>
  <text x="620" y="868" fill="#ff6b6b" font-size="7">fail → re-generate</text>
  <text x="620" y="879" fill="#ff6b6b" font-size="7">→ re-commit → re-test</text>

  <!-- Arrow: CI → Auto-Merge -->
  <line x1="565" y1="910" x2="648" y2="910" stroke="#00E5A0" stroke-width="1.5" marker-end="url(#a)"/>
  <text x="606" y="902" fill="#00E5A0" font-size="7" font-weight="700">PASS ✓</text>

  <!-- Auto-Merge sub-box -->
  <rect x="650" y="870" width="210" height="68" rx="4" fill="#0a1a12" stroke="#00E5A0" stroke-width="2" filter="url(#glow)"/>
  <text x="755" y="888" fill="#00E5A0" font-size="7" text-anchor="middle" letter-spacing="2" font-weight="700">AUTO-MERGE</text>
  <text x="755" y="906" fill="#fff" font-size="12" text-anchor="middle" font-weight="700">Merge PR ✓</text>
  <text x="755" y="920" fill="#aaa" font-size="8" text-anchor="middle">update Jira → RESOLVED</text>
  <text x="755" y="932" fill="#aaa" font-size="8" text-anchor="middle">index fix in KB for RAG</text>

  <!-- Arrow: Auto-Merge → KB feedback -->
  <path d="M860,920 C900,920 920,660 920,370 C920,340 842,340 842,340" stroke="#00E5A0" stroke-width="1" stroke-dasharray="4,3" fill="none" marker-end="url(#a)"/>
  <text x="930" y="640" fill="#00E5A0" font-size="7" transform="rotate(-90,930,640)">index new fix → KB</text>

  <!-- ═══════════════════════════════════════ EXTERNAL SYSTEMS ROW ═══════════════════════════════════════ -->
  <rect x="60" y="972" width="175" height="54" rx="4" fill="#0d1020" stroke="#4C9AFF" stroke-width="1.5"/>
  <text x="147" y="990" fill="#4C9AFF" font-size="8" text-anchor="middle" letter-spacing="2" font-weight="700">JIRA CLOUD</text>
  <text x="147" y="1004" fill="#aaa" font-size="8" text-anchor="middle">webhook events</text>
  <text x="147" y="1016" fill="#555" font-size="7" text-anchor="middle">status · comments · transitions</text>

  <rect x="260" y="972" width="175" height="54" rx="4" fill="#0a1a12" stroke="#00E5A0" stroke-width="1.5"/>
  <text x="347" y="990" fill="#00E5A0" font-size="8" text-anchor="middle" letter-spacing="2" font-weight="700">GITHUB</text>
  <text x="347" y="1004" fill="#aaa" font-size="8" text-anchor="middle">repos · branches · PRs</text>
  <text x="347" y="1016" fill="#555" font-size="7" text-anchor="middle">REST API · webhooks</text>

  <rect x="460" y="972" width="175" height="54" rx="4" fill="#111820" stroke="#B388FF" stroke-width="1.5"/>
  <text x="547" y="990" fill="#B388FF" font-size="8" text-anchor="middle" letter-spacing="2" font-weight="700">DOCKER / K8S</text>
  <text x="547" y="1004" fill="#aaa" font-size="8" text-anchor="middle">containerized pipeline</text>
  <text x="547" y="1016" fill="#555" font-size="7" text-anchor="middle">pod orchestration · scaling</text>

  <rect x="660" y="972" width="175" height="54" rx="4" fill="#111820" stroke="#FFD700" stroke-width="1.5"/>
  <text x="747" y="990" fill="#FFD700" font-size="8" text-anchor="middle" letter-spacing="2" font-weight="700">LLM PROVIDER</text>
  <text x="747" y="1004" fill="#aaa" font-size="8" text-anchor="middle">LangChain abstraction</text>
  <text x="747" y="1016" fill="#555" font-size="7" text-anchor="middle">multi-model · fallback</text>

  <!-- Connector lines from pipeline to externals -->
  <line x1="147" y1="952" x2="147" y2="970" stroke="#4C9AFF" stroke-width="1" marker-end="url(#ab)"/>
  <line x1="347" y1="952" x2="347" y2="970" stroke="#00E5A0" stroke-width="1" marker-end="url(#a)"/>
  <line x1="547" y1="952" x2="547" y2="970" stroke="#B388FF" stroke-width="1" marker-end="url(#ap)"/>
  <line x1="747" y1="952" x2="747" y2="970" stroke="#FFD700" stroke-width="1" marker-end="url(#ay)"/>

  <!-- ═══════════════════════════════════════ FOOTER ═══════════════════════════════════════ -->
  <text x="530" y="1042" fill="#333" font-size="7.5" text-anchor="middle">Orchestration: LangGraph state machine · LangChain tool-calling · async Python · FastAPI · sentence-transformers · Tree-sitter multi-language grammars · pgvector HNSW index</text>
</svg>
